<svg width="156" height="50" viewBox="0 0 156 50" fill="none" xmlns="http://www.w3.org/2000/svg">
<rect width="156" height="50" rx="10" fill="url(#paint0_linear_115_287)"/>
<path d="M61.336 31.224C59.5333 31.224 58.1573 30.7227 57.208 29.72C56.2693 28.7173 55.8 27.2933 55.8 25.448C55.8 24.5307 55.944 23.7147 56.232 23C56.52 22.2747 56.9147 21.6667 57.416 21.176C57.9173 20.6747 58.5147 20.296 59.208 20.04C59.9013 19.784 60.6533 19.656 61.464 19.656C61.9333 19.656 62.36 19.6933 62.744 19.768C63.128 19.832 63.464 19.912 63.752 20.008C64.04 20.0933 64.28 20.184 64.472 20.28C64.664 20.376 64.8027 20.4507 64.888 20.504L64.168 22.52C63.8267 22.3387 63.4267 22.184 62.968 22.056C62.52 21.928 62.008 21.864 61.432 21.864C61.048 21.864 60.6693 21.928 60.296 22.056C59.9333 22.184 59.608 22.392 59.32 22.68C59.0427 22.9573 58.8187 23.32 58.648 23.768C58.4773 24.216 58.392 24.76 58.392 25.4C58.392 25.912 58.4453 26.392 58.552 26.84C58.6693 27.2773 58.8507 27.656 59.096 27.976C59.352 28.296 59.6827 28.552 60.088 28.744C60.4933 28.9253 60.984 29.016 61.56 29.016C61.9227 29.016 62.248 28.9947 62.536 28.952C62.824 28.9093 63.08 28.8613 63.304 28.808C63.528 28.744 63.7253 28.6747 63.896 28.6C64.0667 28.5253 64.2213 28.456 64.36 28.392L65.048 30.392C64.696 30.6053 64.2 30.7973 63.56 30.968C62.92 31.1387 62.1787 31.224 61.336 31.224ZM69.8673 29.336C70.1019 29.336 70.3259 29.3307 70.5393 29.32C70.7526 29.3093 70.9233 29.2933 71.0513 29.272V27.464C70.9553 27.4427 70.8113 27.4213 70.6193 27.4C70.4273 27.3787 70.2513 27.368 70.0913 27.368C69.8673 27.368 69.6539 27.384 69.4513 27.416C69.2593 27.4373 69.0886 27.4853 68.9393 27.56C68.7899 27.6347 68.6726 27.736 68.5873 27.864C68.5019 27.992 68.4593 28.152 68.4593 28.344C68.4593 28.7173 68.5819 28.9787 68.8273 29.128C69.0833 29.2667 69.4299 29.336 69.8673 29.336ZM69.6753 22.36C70.3793 22.36 70.9659 22.44 71.4353 22.6C71.9046 22.76 72.2779 22.9893 72.5553 23.288C72.8433 23.5867 73.0459 23.9493 73.1633 24.376C73.2806 24.8027 73.3393 25.2773 73.3393 25.8V30.76C72.9979 30.8347 72.5233 30.92 71.9153 31.016C71.3073 31.1227 70.5713 31.176 69.7073 31.176C69.1633 31.176 68.6673 31.128 68.2193 31.032C67.7819 30.936 67.4033 30.7813 67.0833 30.568C66.7633 30.344 66.5179 30.056 66.3473 29.704C66.1766 29.352 66.0913 28.92 66.0913 28.408C66.0913 27.9173 66.1873 27.5013 66.3793 27.16C66.5819 26.8187 66.8486 26.5467 67.1793 26.344C67.5099 26.1413 67.8886 25.9973 68.3153 25.912C68.7419 25.816 69.1846 25.768 69.6432 25.768C69.9526 25.768 70.2246 25.784 70.4593 25.816C70.7046 25.8373 70.9019 25.8693 71.0513 25.912V25.688C71.0513 25.2827 70.9286 24.9573 70.6833 24.712C70.4379 24.4667 70.0113 24.344 69.4033 24.344C68.9979 24.344 68.5979 24.376 68.2033 24.44C67.8086 24.4933 67.4673 24.5733 67.1793 24.68L66.8753 22.76C67.0139 22.7173 67.1846 22.6747 67.3873 22.632C67.6006 22.5787 67.8299 22.536 68.0753 22.504C68.3206 22.4613 68.5766 22.4293 68.8433 22.408C69.1206 22.376 69.3979 22.36 69.6753 22.36ZM77.527 26.728C77.527 27.464 77.6923 28.056 78.023 28.504C78.3537 28.952 78.8443 29.176 79.495 29.176C79.7083 29.176 79.9057 29.1707 80.087 29.16C80.2683 29.1387 80.4177 29.1173 80.535 29.096V24.76C80.3857 24.664 80.1883 24.584 79.943 24.52C79.7083 24.456 79.4683 24.424 79.223 24.424C78.0923 24.424 77.527 25.192 77.527 26.728ZM82.919 30.728C82.7057 30.792 82.4603 30.856 82.183 30.92C81.9057 30.9733 81.6123 31.0213 81.303 31.064C81.0043 31.1067 80.695 31.1387 80.375 31.16C80.0657 31.192 79.767 31.208 79.479 31.208C78.7857 31.208 78.167 31.1067 77.623 30.904C77.079 30.7013 76.6203 30.4133 76.247 30.04C75.8737 29.656 75.5857 29.1973 75.383 28.664C75.191 28.12 75.095 27.512 75.095 26.84C75.095 26.1573 75.1803 25.544 75.351 25C75.5217 24.4453 75.767 23.976 76.087 23.592C76.407 23.208 76.7963 22.9147 77.255 22.712C77.7243 22.5093 78.2577 22.408 78.855 22.408C79.1857 22.408 79.479 22.44 79.735 22.504C80.0017 22.568 80.2683 22.6587 80.535 22.776V18.968L82.919 18.584V30.728ZM88.3673 29.336C88.6019 29.336 88.8259 29.3307 89.0393 29.32C89.2526 29.3093 89.4233 29.2933 89.5513 29.272V27.464C89.4553 27.4427 89.3113 27.4213 89.1193 27.4C88.9273 27.3787 88.7513 27.368 88.5913 27.368C88.3673 27.368 88.1539 27.384 87.9513 27.416C87.7593 27.4373 87.5886 27.4853 87.4393 27.56C87.2899 27.6347 87.1726 27.736 87.0873 27.864C87.0019 27.992 86.9593 28.152 86.9593 28.344C86.9593 28.7173 87.0819 28.9787 87.3273 29.128C87.5833 29.2667 87.9299 29.336 88.3673 29.336ZM88.1753 22.36C88.8793 22.36 89.4659 22.44 89.9353 22.6C90.4046 22.76 90.7779 22.9893 91.0553 23.288C91.3433 23.5867 91.5459 23.9493 91.6633 24.376C91.7806 24.8027 91.8393 25.2773 91.8393 25.8V30.76C91.4979 30.8347 91.0233 30.92 90.4153 31.016C89.8073 31.1227 89.0713 31.176 88.2073 31.176C87.6633 31.176 87.1673 31.128 86.7193 31.032C86.2819 30.936 85.9033 30.7813 85.5833 30.568C85.2633 30.344 85.0179 30.056 84.8473 29.704C84.6766 29.352 84.5913 28.92 84.5913 28.408C84.5913 27.9173 84.6873 27.5013 84.8793 27.16C85.0819 26.8187 85.3486 26.5467 85.6793 26.344C86.0099 26.1413 86.3886 25.9973 86.8153 25.912C87.2419 25.816 87.6846 25.768 88.1432 25.768C88.4526 25.768 88.7246 25.784 88.9593 25.816C89.2046 25.8373 89.4019 25.8693 89.5513 25.912V25.688C89.5513 25.2827 89.4286 24.9573 89.1833 24.712C88.9379 24.4667 88.5113 24.344 87.9033 24.344C87.4979 24.344 87.0979 24.376 86.7033 24.44C86.3086 24.4933 85.9673 24.5733 85.6793 24.68L85.3753 22.76C85.5139 22.7173 85.6846 22.6747 85.8873 22.632C86.1006 22.5787 86.3299 22.536 86.5753 22.504C86.8206 22.4613 87.0766 22.4293 87.3433 22.408C87.6206 22.376 87.8979 22.36 88.1753 22.36ZM96.411 29.288C96.8483 29.288 97.1577 29.2453 97.339 29.16C97.5203 29.0747 97.611 28.9093 97.611 28.664C97.611 28.472 97.4937 28.3067 97.259 28.168C97.0243 28.0187 96.667 27.8533 96.187 27.672C95.8137 27.5333 95.4723 27.3893 95.163 27.24C94.8643 27.0907 94.6083 26.9147 94.395 26.712C94.1817 26.4987 94.0163 26.248 93.899 25.96C93.7817 25.672 93.723 25.3253 93.723 24.92C93.723 24.1307 94.0163 23.5067 94.603 23.048C95.1897 22.5893 95.995 22.36 97.019 22.36C97.531 22.36 98.0217 22.408 98.491 22.504C98.9603 22.5893 99.3337 22.6853 99.611 22.792L99.195 24.648C98.9177 24.552 98.6137 24.4667 98.283 24.392C97.963 24.3173 97.6003 24.28 97.195 24.28C96.4483 24.28 96.075 24.488 96.075 24.904C96.075 25 96.091 25.0853 96.123 25.16C96.155 25.2347 96.219 25.3093 96.315 25.384C96.411 25.448 96.539 25.5227 96.699 25.608C96.8697 25.6827 97.083 25.768 97.339 25.864C97.8617 26.056 98.2937 26.248 98.635 26.44C98.9763 26.6213 99.243 26.824 99.435 27.048C99.6377 27.2613 99.7763 27.5013 99.851 27.768C99.9363 28.0347 99.979 28.344 99.979 28.696C99.979 29.528 99.6643 30.1573 99.035 30.584C98.4163 31.0107 97.5363 31.224 96.395 31.224C95.6483 31.224 95.0243 31.16 94.523 31.032C94.0323 30.904 93.691 30.7973 93.499 30.712L93.899 28.776C94.3043 28.936 94.7203 29.064 95.147 29.16C95.5737 29.2453 95.995 29.288 96.411 29.288ZM101.681 20.488L104.065 20.104V22.584H106.929V24.568H104.065V27.528C104.065 28.0293 104.15 28.4293 104.321 28.728C104.502 29.0267 104.859 29.176 105.393 29.176C105.649 29.176 105.91 29.1547 106.177 29.112C106.454 29.0587 106.705 28.9893 106.929 28.904L107.265 30.76C106.977 30.8773 106.657 30.9787 106.305 31.064C105.953 31.1493 105.521 31.192 105.009 31.192C104.358 31.192 103.819 31.1067 103.393 30.936C102.966 30.7547 102.625 30.5093 102.369 30.2C102.113 29.88 101.931 29.496 101.825 29.048C101.729 28.6 101.681 28.104 101.681 27.56V20.488ZM113.942 24.696C113.729 24.6427 113.478 24.5893 113.19 24.536C112.902 24.472 112.593 24.44 112.262 24.44C112.113 24.44 111.931 24.456 111.718 24.488C111.515 24.5093 111.361 24.536 111.254 24.568V31H108.87V23.032C109.297 22.8827 109.798 22.744 110.374 22.616C110.961 22.4773 111.611 22.408 112.326 22.408C112.454 22.408 112.609 22.4187 112.79 22.44C112.971 22.4507 113.153 22.472 113.334 22.504C113.515 22.5253 113.697 22.5573 113.878 22.6C114.059 22.632 114.214 22.6747 114.342 22.728L113.942 24.696ZM118.68 29.336C118.914 29.336 119.138 29.3307 119.352 29.32C119.565 29.3093 119.736 29.2933 119.864 29.272V27.464C119.768 27.4427 119.624 27.4213 119.432 27.4C119.24 27.3787 119.064 27.368 118.904 27.368C118.68 27.368 118.466 27.384 118.264 27.416C118.072 27.4373 117.901 27.4853 117.752 27.56C117.602 27.6347 117.485 27.736 117.4 27.864C117.314 27.992 117.272 28.152 117.272 28.344C117.272 28.7173 117.394 28.9787 117.64 29.128C117.896 29.2667 118.242 29.336 118.68 29.336ZM118.488 22.36C119.192 22.36 119.778 22.44 120.248 22.6C120.717 22.76 121.09 22.9893 121.368 23.288C121.656 23.5867 121.858 23.9493 121.976 24.376C122.093 24.8027 122.152 25.2773 122.152 25.8V30.76C121.81 30.8347 121.336 30.92 120.728 31.016C120.12 31.1227 119.384 31.176 118.52 31.176C117.976 31.176 117.48 31.128 117.032 31.032C116.594 30.936 116.216 30.7813 115.896 30.568C115.576 30.344 115.33 30.056 115.16 29.704C114.989 29.352 114.904 28.92 114.904 28.408C114.904 27.9173 115 27.5013 115.192 27.16C115.394 26.8187 115.661 26.5467 115.992 26.344C116.322 26.1413 116.701 25.9973 117.128 25.912C117.554 25.816 117.997 25.768 118.456 25.768C118.765 25.768 119.037 25.784 119.272 25.816C119.517 25.8373 119.714 25.8693 119.864 25.912V25.688C119.864 25.2827 119.741 24.9573 119.496 24.712C119.25 24.4667 118.824 24.344 118.216 24.344C117.81 24.344 117.41 24.376 117.016 24.44C116.621 24.4933 116.28 24.5733 115.992 24.68L115.688 22.76C115.826 22.7173 115.997 22.6747 116.2 22.632C116.413 22.5787 116.642 22.536 116.888 22.504C117.133 22.4613 117.389 22.4293 117.656 22.408C117.933 22.376 118.21 22.36 118.488 22.36ZM129.38 24.696C129.166 24.6427 128.916 24.5893 128.628 24.536C128.34 24.472 128.03 24.44 127.7 24.44C127.55 24.44 127.369 24.456 127.156 24.488C126.953 24.5093 126.798 24.536 126.692 24.568V31H124.308V23.032C124.734 22.8827 125.236 22.744 125.812 22.616C126.398 22.4773 127.049 22.408 127.764 22.408C127.892 22.408 128.046 22.4187 128.228 22.44C128.409 22.4507 128.59 22.472 128.772 22.504C128.953 22.5253 129.134 22.5573 129.316 22.6C129.497 22.632 129.652 22.6747 129.78 22.728L129.38 24.696Z" fill="white"/>
<path fill-rule="evenodd" clip-rule="evenodd" d="M27 25C27 19.477 31.477 15 37 15C42.523 15 47 19.477 47 25C47 30.523 42.523 35 37 35C31.477 35 27 30.523 27 25ZM37 17C34.8783 17 32.8434 17.8429 31.3431 19.3431C29.8429 20.8434 29 22.8783 29 25C29 27.1217 29.8429 29.1566 31.3431 30.6569C32.8434 32.1571 34.8783 33 37 33C39.1217 33 41.1566 32.1571 42.6569 30.6569C44.1571 29.1566 45 27.1217 45 25C45 22.8783 44.1571 20.8434 42.6569 19.3431C41.1566 17.8429 39.1217 17 37 17Z" fill="white"/>
<path fill-rule="evenodd" clip-rule="evenodd" d="M38 20C38 19.7348 37.8946 19.4804 37.7071 19.2929C37.5196 19.1054 37.2652 19 37 19C36.7348 19 36.4804 19.1054 36.2929 19.2929C36.1054 19.4804 36 19.7348 36 20V24H32C31.7348 24 31.4804 24.1054 31.2929 24.2929C31.1054 24.4804 31 24.7348 31 25C31 25.2652 31.1054 25.5196 31.2929 25.7071C31.4804 25.8946 31.7348 26 32 26H36V30C36 30.2652 36.1054 30.5196 36.2929 30.7071C36.4804 30.8946 36.7348 31 37 31C37.2652 31 37.5196 30.8946 37.7071 30.7071C37.8946 30.5196 38 30.2652 38 30V26H42C42.2652 26 42.5196 25.8946 42.7071 25.7071C42.8946 25.5196 43 25.2652 43 25C43 24.7348 42.8946 24.4804 42.7071 24.2929C42.5196 24.1054 42.2652 24 42 24H38V20Z" fill="white"/>
<defs>
<linearGradient id="paint0_linear_115_287" x1="-4.07942e-07" y1="25.4098" x2="156" y2="25.4098" gradientUnits="userSpaceOnUse">
<stop stop-color="#00CAFC"/>
<stop offset="1" stop-color="#0056E2"/>
</linearGradient>
</defs>
</svg>
