<svg width="231" height="40" viewBox="0 0 231 40" fill="none" xmlns="http://www.w3.org/2000/svg">
<rect width="231" height="40" rx="5" fill="white"/>
<path d="M107.576 26C107.139 25.072 106.707 24.1067 106.28 23.104C105.853 22.1013 105.448 21.1093 105.064 20.128C104.68 19.1467 104.323 18.208 103.992 17.312C103.672 16.416 103.395 15.616 103.16 14.912H105.912C106.125 15.552 106.355 16.2453 106.6 16.992C106.856 17.728 107.112 18.464 107.368 19.2C107.635 19.936 107.891 20.64 108.136 21.312C108.381 21.984 108.611 22.5653 108.824 23.056C109.027 22.5653 109.251 21.984 109.496 21.312C109.752 20.64 110.008 19.936 110.264 19.2C110.531 18.464 110.787 17.728 111.032 16.992C111.288 16.2453 111.523 15.552 111.736 14.912H114.392C114.147 15.616 113.864 16.416 113.544 17.312C113.224 18.208 112.872 19.1467 112.488 20.128C112.104 21.1093 111.699 22.1013 111.272 23.104C110.845 24.1067 110.413 25.072 109.976 26H107.576ZM122.664 21.776C122.664 22.4373 122.568 23.0453 122.376 23.6C122.184 24.144 121.907 24.6133 121.544 25.008C121.181 25.392 120.744 25.6907 120.232 25.904C119.731 26.1173 119.165 26.224 118.536 26.224C117.917 26.224 117.352 26.1173 116.84 25.904C116.339 25.6907 115.907 25.392 115.544 25.008C115.181 24.6133 114.899 24.144 114.696 23.6C114.493 23.0453 114.392 22.4373 114.392 21.776C114.392 21.1147 114.493 20.512 114.696 19.968C114.909 19.424 115.197 18.96 115.56 18.576C115.933 18.192 116.371 17.8933 116.872 17.68C117.384 17.4667 117.939 17.36 118.536 17.36C119.144 17.36 119.699 17.4667 120.2 17.68C120.712 17.8933 121.149 18.192 121.512 18.576C121.875 18.96 122.157 19.424 122.36 19.968C122.563 20.512 122.664 21.1147 122.664 21.776ZM120.232 21.776C120.232 21.04 120.083 20.464 119.784 20.048C119.496 19.6213 119.08 19.408 118.536 19.408C117.992 19.408 117.571 19.6213 117.272 20.048C116.973 20.464 116.824 21.04 116.824 21.776C116.824 22.512 116.973 23.0987 117.272 23.536C117.571 23.9627 117.992 24.176 118.536 24.176C119.08 24.176 119.496 23.9627 119.784 23.536C120.083 23.0987 120.232 22.512 120.232 21.776ZM127.871 26.16C127.177 26.1493 126.612 26.0747 126.175 25.936C125.748 25.7973 125.407 25.6053 125.151 25.36C124.905 25.104 124.735 24.8 124.639 24.448C124.553 24.0853 124.511 23.68 124.511 23.232V13.968L126.895 13.584V22.752C126.895 22.9653 126.911 23.1573 126.943 23.328C126.975 23.4987 127.033 23.6427 127.119 23.76C127.215 23.8773 127.348 23.9733 127.519 24.048C127.689 24.1227 127.919 24.1707 128.207 24.192L127.871 26.16ZM129.493 15.488L131.877 15.104V17.584H134.741V19.568H131.877V22.528C131.877 23.0293 131.962 23.4293 132.133 23.728C132.314 24.0267 132.672 24.176 133.205 24.176C133.461 24.176 133.722 24.1547 133.989 24.112C134.266 24.0587 134.517 23.9893 134.741 23.904L135.077 25.76C134.789 25.8773 134.469 25.9787 134.117 26.064C133.765 26.1493 133.333 26.192 132.821 26.192C132.17 26.192 131.632 26.1067 131.205 25.936C130.778 25.7547 130.437 25.5093 130.181 25.2C129.925 24.88 129.744 24.496 129.637 24.048C129.541 23.6 129.493 23.104 129.493 22.56V15.488ZM139.586 24.336C139.821 24.336 140.045 24.3307 140.258 24.32C140.471 24.3093 140.642 24.2933 140.77 24.272V22.464C140.674 22.4427 140.53 22.4213 140.338 22.4C140.146 22.3787 139.97 22.368 139.81 22.368C139.586 22.368 139.373 22.384 139.17 22.416C138.978 22.4373 138.807 22.4853 138.658 22.56C138.509 22.6347 138.391 22.736 138.306 22.864C138.221 22.992 138.178 23.152 138.178 23.344C138.178 23.7173 138.301 23.9787 138.546 24.128C138.802 24.2667 139.149 24.336 139.586 24.336ZM139.394 17.36C140.098 17.36 140.685 17.44 141.154 17.6C141.623 17.76 141.997 17.9893 142.274 18.288C142.562 18.5867 142.765 18.9493 142.882 19.376C142.999 19.8027 143.058 20.2773 143.058 20.8V25.76C142.717 25.8347 142.242 25.92 141.634 26.016C141.026 26.1227 140.29 26.176 139.426 26.176C138.882 26.176 138.386 26.128 137.938 26.032C137.501 25.936 137.122 25.7813 136.802 25.568C136.482 25.344 136.237 25.056 136.066 24.704C135.895 24.352 135.81 23.92 135.81 23.408C135.81 22.9173 135.906 22.5013 136.098 22.16C136.301 21.8187 136.567 21.5467 136.898 21.344C137.229 21.1413 137.607 20.9973 138.034 20.912C138.461 20.816 138.903 20.768 139.362 20.768C139.671 20.768 139.943 20.784 140.178 20.816C140.423 20.8373 140.621 20.8693 140.77 20.912V20.688C140.77 20.2827 140.647 19.9573 140.402 19.712C140.157 19.4667 139.73 19.344 139.122 19.344C138.717 19.344 138.317 19.376 137.922 19.44C137.527 19.4933 137.186 19.5733 136.898 19.68L136.594 17.76C136.733 17.7173 136.903 17.6747 137.106 17.632C137.319 17.5787 137.549 17.536 137.794 17.504C138.039 17.4613 138.295 17.4293 138.562 17.408C138.839 17.376 139.117 17.36 139.394 17.36ZM150.286 19.696C150.072 19.6427 149.822 19.5893 149.534 19.536C149.246 19.472 148.936 19.44 148.606 19.44C148.456 19.44 148.275 19.456 148.062 19.488C147.859 19.5093 147.704 19.536 147.598 19.568V26H145.214V18.032C145.64 17.8827 146.142 17.744 146.718 17.616C147.304 17.4773 147.955 17.408 148.67 17.408C148.798 17.408 148.952 17.4187 149.134 17.44C149.315 17.4507 149.496 17.472 149.678 17.504C149.859 17.5253 150.04 17.5573 150.222 17.6C150.403 17.632 150.558 17.6747 150.686 17.728L150.286 19.696Z" fill="url(#paint0_linear_126_5757)"/>
<path fill-rule="evenodd" clip-rule="evenodd" d="M88.0003 12C83.5833 12 80 15.5833 80 20.0003C80 24.4173 83.5833 28.0006 88.0003 28.0006C92.4173 28.0006 96.0006 24.4173 96.0006 20.0003C96.0006 15.5833 92.4173 12 88.0003 12ZM81.8863 20.0003C81.8863 16.6251 84.6251 13.8863 88.0003 13.8863C91.3755 13.8863 94.1143 16.6251 94.1143 20.0003C94.1143 23.3755 91.3755 26.1143 88.0003 26.1143C84.6251 26.1143 81.8863 23.3755 81.8863 20.0003ZM88.4266 17.7243C88.7934 17.3546 88.7911 16.7574 88.4214 16.3905C88.0516 16.0236 87.4544 16.0259 87.0875 16.3957L84.1699 19.3362C83.805 19.7039 83.805 20.2971 84.1699 20.6648L87.0875 23.6053C87.4544 23.975 88.0516 23.9773 88.4214 23.6105C88.7911 23.2436 88.7934 22.6464 88.4266 22.2766L87.1039 20.9436H91.1614C91.6823 20.9436 92.1045 20.5214 92.1045 20.0005C92.1045 19.4796 91.6823 19.0573 91.1614 19.0573H87.1039L88.4266 17.7243Z" fill="url(#paint1_linear_126_5757)"/>
<defs>
<linearGradient id="paint0_linear_126_5757" x1="103" y1="20.1475" x2="151" y2="20.1475" gradientUnits="userSpaceOnUse">
<stop stop-color="#00CAFC"/>
<stop offset="1" stop-color="#0056E2"/>
</linearGradient>
<linearGradient id="paint1_linear_126_5757" x1="80" y1="20.1315" x2="96.0006" y2="20.1315" gradientUnits="userSpaceOnUse">
<stop stop-color="#00CAFC"/>
<stop offset="1" stop-color="#0056E2"/>
</linearGradient>
</defs>
</svg>
