<svg width="231" height="40" viewBox="0 0 231 40" fill="none" xmlns="http://www.w3.org/2000/svg">
<rect width="231" height="40" rx="5" fill="url(#paint0_linear_126_5750)"/>
<path d="M96.336 26.224C94.5333 26.224 93.1573 25.7227 92.208 24.72C91.2693 23.7173 90.8 22.2933 90.8 20.448C90.8 19.5307 90.944 18.7147 91.232 18C91.52 17.2747 91.9147 16.6667 92.416 16.176C92.9173 15.6747 93.5147 15.296 94.208 15.04C94.9013 14.784 95.6533 14.656 96.464 14.656C96.9333 14.656 97.36 14.6933 97.744 14.768C98.128 14.832 98.464 14.912 98.752 15.008C99.04 15.0933 99.28 15.184 99.472 15.28C99.664 15.376 99.8027 15.4507 99.888 15.504L99.168 17.52C98.8267 17.3387 98.4267 17.184 97.968 17.056C97.52 16.928 97.008 16.864 96.432 16.864C96.048 16.864 95.6693 16.928 95.296 17.056C94.9333 17.184 94.608 17.392 94.32 17.68C94.0427 17.9573 93.8187 18.32 93.648 18.768C93.4773 19.216 93.392 19.76 93.392 20.4C93.392 20.912 93.4453 21.392 93.552 21.84C93.6693 22.2773 93.8507 22.656 94.096 22.976C94.352 23.296 94.6827 23.552 95.088 23.744C95.4933 23.9253 95.984 24.016 96.56 24.016C96.9227 24.016 97.248 23.9947 97.536 23.952C97.824 23.9093 98.08 23.8613 98.304 23.808C98.528 23.744 98.7253 23.6747 98.896 23.6C99.0667 23.5253 99.2213 23.456 99.36 23.392L100.048 25.392C99.696 25.6053 99.2 25.7973 98.56 25.968C97.92 26.1387 97.1787 26.224 96.336 26.224ZM104.867 24.336C105.102 24.336 105.326 24.3307 105.539 24.32C105.753 24.3093 105.923 24.2933 106.051 24.272V22.464C105.955 22.4427 105.811 22.4213 105.619 22.4C105.427 22.3787 105.251 22.368 105.091 22.368C104.867 22.368 104.654 22.384 104.451 22.416C104.259 22.4373 104.089 22.4853 103.939 22.56C103.79 22.6347 103.673 22.736 103.587 22.864C103.502 22.992 103.459 23.152 103.459 23.344C103.459 23.7173 103.582 23.9787 103.827 24.128C104.083 24.2667 104.43 24.336 104.867 24.336ZM104.675 17.36C105.379 17.36 105.966 17.44 106.435 17.6C106.905 17.76 107.278 17.9893 107.555 18.288C107.843 18.5867 108.046 18.9493 108.163 19.376C108.281 19.8027 108.339 20.2773 108.339 20.8V25.76C107.998 25.8347 107.523 25.92 106.915 26.016C106.307 26.1227 105.571 26.176 104.707 26.176C104.163 26.176 103.667 26.128 103.219 26.032C102.782 25.936 102.403 25.7813 102.083 25.568C101.763 25.344 101.518 25.056 101.347 24.704C101.177 24.352 101.091 23.92 101.091 23.408C101.091 22.9173 101.187 22.5013 101.379 22.16C101.582 21.8187 101.849 21.5467 102.179 21.344C102.51 21.1413 102.889 20.9973 103.315 20.912C103.742 20.816 104.185 20.768 104.643 20.768C104.953 20.768 105.225 20.784 105.459 20.816C105.705 20.8373 105.902 20.8693 106.051 20.912V20.688C106.051 20.2827 105.929 19.9573 105.683 19.712C105.438 19.4667 105.011 19.344 104.403 19.344C103.998 19.344 103.598 19.376 103.203 19.44C102.809 19.4933 102.467 19.5733 102.179 19.68L101.875 17.76C102.014 17.7173 102.185 17.6747 102.387 17.632C102.601 17.5787 102.83 17.536 103.075 17.504C103.321 17.4613 103.577 17.4293 103.843 17.408C104.121 17.376 104.398 17.36 104.675 17.36ZM112.527 21.728C112.527 22.464 112.692 23.056 113.023 23.504C113.354 23.952 113.844 24.176 114.495 24.176C114.708 24.176 114.906 24.1707 115.087 24.16C115.268 24.1387 115.418 24.1173 115.535 24.096V19.76C115.386 19.664 115.188 19.584 114.943 19.52C114.708 19.456 114.468 19.424 114.223 19.424C113.092 19.424 112.527 20.192 112.527 21.728ZM117.919 25.728C117.706 25.792 117.46 25.856 117.183 25.92C116.906 25.9733 116.612 26.0213 116.303 26.064C116.004 26.1067 115.695 26.1387 115.375 26.16C115.066 26.192 114.767 26.208 114.479 26.208C113.786 26.208 113.167 26.1067 112.623 25.904C112.079 25.7013 111.62 25.4133 111.247 25.04C110.874 24.656 110.586 24.1973 110.383 23.664C110.191 23.12 110.095 22.512 110.095 21.84C110.095 21.1573 110.18 20.544 110.351 20C110.522 19.4453 110.767 18.976 111.087 18.592C111.407 18.208 111.796 17.9147 112.255 17.712C112.724 17.5093 113.258 17.408 113.855 17.408C114.186 17.408 114.479 17.44 114.735 17.504C115.002 17.568 115.268 17.6587 115.535 17.776V13.968L117.919 13.584V25.728ZM123.367 24.336C123.602 24.336 123.826 24.3307 124.039 24.32C124.253 24.3093 124.423 24.2933 124.551 24.272V22.464C124.455 22.4427 124.311 22.4213 124.119 22.4C123.927 22.3787 123.751 22.368 123.591 22.368C123.367 22.368 123.154 22.384 122.951 22.416C122.759 22.4373 122.589 22.4853 122.439 22.56C122.29 22.6347 122.173 22.736 122.087 22.864C122.002 22.992 121.959 23.152 121.959 23.344C121.959 23.7173 122.082 23.9787 122.327 24.128C122.583 24.2667 122.93 24.336 123.367 24.336ZM123.175 17.36C123.879 17.36 124.466 17.44 124.935 17.6C125.405 17.76 125.778 17.9893 126.055 18.288C126.343 18.5867 126.546 18.9493 126.663 19.376C126.781 19.8027 126.839 20.2773 126.839 20.8V25.76C126.498 25.8347 126.023 25.92 125.415 26.016C124.807 26.1227 124.071 26.176 123.207 26.176C122.663 26.176 122.167 26.128 121.719 26.032C121.282 25.936 120.903 25.7813 120.583 25.568C120.263 25.344 120.018 25.056 119.847 24.704C119.677 24.352 119.591 23.92 119.591 23.408C119.591 22.9173 119.687 22.5013 119.879 22.16C120.082 21.8187 120.349 21.5467 120.679 21.344C121.01 21.1413 121.389 20.9973 121.815 20.912C122.242 20.816 122.685 20.768 123.143 20.768C123.453 20.768 123.725 20.784 123.959 20.816C124.205 20.8373 124.402 20.8693 124.551 20.912V20.688C124.551 20.2827 124.429 19.9573 124.183 19.712C123.938 19.4667 123.511 19.344 122.903 19.344C122.498 19.344 122.098 19.376 121.703 19.44C121.309 19.4933 120.967 19.5733 120.679 19.68L120.375 17.76C120.514 17.7173 120.685 17.6747 120.887 17.632C121.101 17.5787 121.33 17.536 121.575 17.504C121.821 17.4613 122.077 17.4293 122.343 17.408C122.621 17.376 122.898 17.36 123.175 17.36ZM131.411 24.288C131.848 24.288 132.158 24.2453 132.339 24.16C132.52 24.0747 132.611 23.9093 132.611 23.664C132.611 23.472 132.494 23.3067 132.259 23.168C132.024 23.0187 131.667 22.8533 131.187 22.672C130.814 22.5333 130.472 22.3893 130.163 22.24C129.864 22.0907 129.608 21.9147 129.395 21.712C129.182 21.4987 129.016 21.248 128.899 20.96C128.782 20.672 128.723 20.3253 128.723 19.92C128.723 19.1307 129.016 18.5067 129.603 18.048C130.19 17.5893 130.995 17.36 132.019 17.36C132.531 17.36 133.022 17.408 133.491 17.504C133.96 17.5893 134.334 17.6853 134.611 17.792L134.195 19.648C133.918 19.552 133.614 19.4667 133.283 19.392C132.963 19.3173 132.6 19.28 132.195 19.28C131.448 19.28 131.075 19.488 131.075 19.904C131.075 20 131.091 20.0853 131.123 20.16C131.155 20.2347 131.219 20.3093 131.315 20.384C131.411 20.448 131.539 20.5227 131.699 20.608C131.87 20.6827 132.083 20.768 132.339 20.864C132.862 21.056 133.294 21.248 133.635 21.44C133.976 21.6213 134.243 21.824 134.435 22.048C134.638 22.2613 134.776 22.5013 134.851 22.768C134.936 23.0347 134.979 23.344 134.979 23.696C134.979 24.528 134.664 25.1573 134.035 25.584C133.416 26.0107 132.536 26.224 131.395 26.224C130.648 26.224 130.024 26.16 129.523 26.032C129.032 25.904 128.691 25.7973 128.499 25.712L128.899 23.776C129.304 23.936 129.72 24.064 130.147 24.16C130.574 24.2453 130.995 24.288 131.411 24.288ZM136.681 15.488L139.065 15.104V17.584H141.929V19.568H139.065V22.528C139.065 23.0293 139.15 23.4293 139.321 23.728C139.502 24.0267 139.859 24.176 140.393 24.176C140.649 24.176 140.91 24.1547 141.177 24.112C141.454 24.0587 141.705 23.9893 141.929 23.904L142.265 25.76C141.977 25.8773 141.657 25.9787 141.305 26.064C140.953 26.1493 140.521 26.192 140.009 26.192C139.358 26.192 138.819 26.1067 138.393 25.936C137.966 25.7547 137.625 25.5093 137.369 25.2C137.113 24.88 136.931 24.496 136.825 24.048C136.729 23.6 136.681 23.104 136.681 22.56V15.488ZM148.942 19.696C148.729 19.6427 148.478 19.5893 148.19 19.536C147.902 19.472 147.593 19.44 147.262 19.44C147.113 19.44 146.931 19.456 146.718 19.488C146.515 19.5093 146.361 19.536 146.254 19.568V26H143.87V18.032C144.297 17.8827 144.798 17.744 145.374 17.616C145.961 17.4773 146.611 17.408 147.326 17.408C147.454 17.408 147.609 17.4187 147.79 17.44C147.971 17.4507 148.153 17.472 148.334 17.504C148.515 17.5253 148.697 17.5573 148.878 17.6C149.059 17.632 149.214 17.6747 149.342 17.728L148.942 19.696ZM153.68 24.336C153.914 24.336 154.138 24.3307 154.352 24.32C154.565 24.3093 154.736 24.2933 154.864 24.272V22.464C154.768 22.4427 154.624 22.4213 154.432 22.4C154.24 22.3787 154.064 22.368 153.904 22.368C153.68 22.368 153.466 22.384 153.264 22.416C153.072 22.4373 152.901 22.4853 152.752 22.56C152.602 22.6347 152.485 22.736 152.4 22.864C152.314 22.992 152.272 23.152 152.272 23.344C152.272 23.7173 152.394 23.9787 152.64 24.128C152.896 24.2667 153.242 24.336 153.68 24.336ZM153.488 17.36C154.192 17.36 154.778 17.44 155.248 17.6C155.717 17.76 156.09 17.9893 156.368 18.288C156.656 18.5867 156.858 18.9493 156.976 19.376C157.093 19.8027 157.152 20.2773 157.152 20.8V25.76C156.81 25.8347 156.336 25.92 155.728 26.016C155.12 26.1227 154.384 26.176 153.52 26.176C152.976 26.176 152.48 26.128 152.032 26.032C151.594 25.936 151.216 25.7813 150.896 25.568C150.576 25.344 150.33 25.056 150.16 24.704C149.989 24.352 149.904 23.92 149.904 23.408C149.904 22.9173 150 22.5013 150.192 22.16C150.394 21.8187 150.661 21.5467 150.992 21.344C151.322 21.1413 151.701 20.9973 152.128 20.912C152.554 20.816 152.997 20.768 153.456 20.768C153.765 20.768 154.037 20.784 154.272 20.816C154.517 20.8373 154.714 20.8693 154.864 20.912V20.688C154.864 20.2827 154.741 19.9573 154.496 19.712C154.25 19.4667 153.824 19.344 153.216 19.344C152.81 19.344 152.41 19.376 152.016 19.44C151.621 19.4933 151.28 19.5733 150.992 19.68L150.688 17.76C150.826 17.7173 150.997 17.6747 151.2 17.632C151.413 17.5787 151.642 17.536 151.888 17.504C152.133 17.4613 152.389 17.4293 152.656 17.408C152.933 17.376 153.21 17.36 153.488 17.36ZM164.38 19.696C164.166 19.6427 163.916 19.5893 163.628 19.536C163.34 19.472 163.03 19.44 162.7 19.44C162.55 19.44 162.369 19.456 162.156 19.488C161.953 19.5093 161.798 19.536 161.692 19.568V26H159.308V18.032C159.734 17.8827 160.236 17.744 160.812 17.616C161.398 17.4773 162.049 17.408 162.764 17.408C162.892 17.408 163.046 17.4187 163.228 17.44C163.409 17.4507 163.59 17.472 163.772 17.504C163.953 17.5253 164.134 17.5573 164.316 17.6C164.497 17.632 164.652 17.6747 164.78 17.728L164.38 19.696Z" fill="white"/>
<path fill-rule="evenodd" clip-rule="evenodd" d="M67 20C67 15.5816 70.5816 12 75 12C79.4184 12 83 15.5816 83 20C83 24.4184 79.4184 28 75 28C70.5816 28 67 24.4184 67 20ZM75 13.6C73.3026 13.6 71.6747 14.2743 70.4745 15.4745C69.2743 16.6747 68.6 18.3026 68.6 20C68.6 21.6974 69.2743 23.3253 70.4745 24.5255C71.6747 25.7257 73.3026 26.4 75 26.4C76.6974 26.4 78.3253 25.7257 79.5255 24.5255C80.7257 23.3253 81.4 21.6974 81.4 20C81.4 18.3026 80.7257 16.6747 79.5255 15.4745C78.3253 14.2743 76.6974 13.6 75 13.6Z" fill="white"/>
<path fill-rule="evenodd" clip-rule="evenodd" d="M75.8 16C75.8 15.7878 75.7157 15.5843 75.5656 15.4343C75.4156 15.2842 75.2121 15.2 75 15.2C74.7878 15.2 74.5843 15.2842 74.4343 15.4343C74.2842 15.5843 74.2 15.7878 74.2 16V19.2H71C70.7878 19.2 70.5843 19.2842 70.4343 19.4343C70.2842 19.5843 70.2 19.7878 70.2 20C70.2 20.2121 70.2842 20.4156 70.4343 20.5656C70.5843 20.7157 70.7878 20.8 71 20.8H74.2V24C74.2 24.2121 74.2842 24.4156 74.4343 24.5656C74.5843 24.7157 74.7878 24.8 75 24.8C75.2121 24.8 75.4156 24.7157 75.5656 24.5656C75.7157 24.4156 75.8 24.2121 75.8 24V20.8H79C79.2121 20.8 79.4156 20.7157 79.5656 20.5656C79.7157 20.4156 79.8 20.2121 79.8 20C79.8 19.7878 79.7157 19.5843 79.5656 19.4343C79.4156 19.2842 79.2121 19.2 79 19.2H75.8V16Z" fill="white"/>
<defs>
<linearGradient id="paint0_linear_126_5750" x1="-6.04068e-07" y1="20.3279" x2="231" y2="20.3279" gradientUnits="userSpaceOnUse">
<stop stop-color="#00CAFC"/>
<stop offset="1" stop-color="#0056E2"/>
</linearGradient>
</defs>
</svg>
