<svg width="44" height="44" viewBox="0 0 44 44" fill="none" xmlns="http://www.w3.org/2000/svg">
<path d="M0 5C0 2.23858 2.23858 0 5 0H44V44H5C2.23858 44 0 41.7614 0 39V5Z" fill="#404A5C"/>
<path d="M20.7892 27.3807C21.6548 27.3807 22.512 27.2102 23.3117 26.879C24.1114 26.5477 24.838 26.0622 25.4501 25.4501C26.0622 24.838 26.5477 24.1114 26.879 23.3117C27.2102 22.5119 27.3807 21.6548 27.3807 20.7892C27.3807 19.9236 27.2102 19.0665 26.879 18.2668C26.5477 17.467 26.0622 16.7404 25.4501 16.1283C24.838 15.5162 24.1114 15.0307 23.3117 14.6995C22.512 14.3682 21.6548 14.1977 20.7892 14.1977C19.041 14.1977 17.3645 14.8922 16.1283 16.1283C14.8922 17.3645 14.1977 19.041 14.1977 20.7892C14.1977 22.5374 14.8922 24.214 16.1283 25.4501C17.3645 26.6862 19.041 27.3807 20.7892 27.3807ZM27.7323 26.1789L31.6652 30.1118C31.77 30.2132 31.8536 30.3345 31.9111 30.4685C31.9686 30.6026 31.9988 30.7468 32 30.8927C32.0011 31.0385 31.9732 31.1832 31.9179 31.3181C31.8626 31.4531 31.7809 31.5757 31.6777 31.6788C31.5745 31.7819 31.4517 31.8633 31.3167 31.9185C31.1817 31.9736 31.037 32.0013 30.8911 32C30.7452 31.9986 30.6011 31.9682 30.4671 31.9105C30.3331 31.8528 30.212 31.7691 30.1107 31.6641L26.1778 27.7311C24.4117 29.102 22.1897 29.7483 19.9639 29.5385C17.7381 29.3287 15.676 28.2786 14.1972 26.6019C12.7185 24.9252 11.9343 22.7479 12.0043 20.5134C12.0743 18.2788 12.9933 16.155 14.5741 14.5741C16.155 12.9933 18.2788 12.0743 20.5134 12.0043C22.7479 11.9343 24.9252 12.7185 26.6019 14.1972C28.2786 15.676 29.3287 17.7381 29.5385 19.9639C29.7483 22.1897 29.102 24.4117 27.7312 26.1778L27.7323 26.1789Z" fill="#001E4D"/>
</svg>
