<svg width="45" height="37" viewBox="0 0 45 37" fill="none" xmlns="http://www.w3.org/2000/svg">
<path fill-rule="evenodd" clip-rule="evenodd" d="M28.9132 36.2238H15.9457C15.8268 36.2238 15.7078 36.1762 15.6126 36.1049L6.45215 28.2768C6.30939 28.1578 6.2618 27.9675 6.2856 27.8009L8.73632 14.8573L9.85462 1.03329C9.87841 0.819152 10.0212 0.628805 10.2353 0.581219C10.4494 0.533632 10.6874 0.628806 10.8064 0.819153L14.8275 7.60029C16.3027 7.02925 21.561 5.48267 30.0077 7.64787L34.0526 0.819153C34.1715 0.628806 34.3857 0.533632 34.5998 0.581219C34.814 0.628805 34.9805 0.819152 35.0043 1.03329L36.0988 14.8573L38.5495 27.8009C38.5971 27.9675 38.5257 28.1578 38.383 28.2768L29.2225 36.1049C29.1511 36.1762 29.0321 36.2238 28.9132 36.2238ZM16.1361 35.2007H28.7228L37.5026 27.682L35.0995 15.0238C35.0995 15.008 35.0995 14.9921 35.0995 14.9763L34.1002 2.72263L30.6739 8.48065C30.5549 8.69479 30.3408 8.78996 30.1028 8.71858C25.0348 7.36235 21.1327 7.43374 18.7772 7.71926C16.2075 8.02857 14.8275 8.671 14.8275 8.69479C14.5895 8.78997 14.304 8.71858 14.1612 8.48065L10.735 2.72263L9.75944 14.9763C9.74357 14.9921 9.73565 15.008 9.73565 15.0238L7.33252 27.682L16.1361 35.2007Z" fill="white"/>
<path fill-rule="evenodd" clip-rule="evenodd" d="M22.4176 25.9926C22.2986 25.9926 22.1558 25.945 22.0607 25.8498L19.0865 22.8756C18.9437 22.7328 18.8961 22.5187 18.9913 22.3284C19.0627 22.138 19.253 22.019 19.4672 22.019H25.3917C25.6059 22.019 25.7724 22.138 25.8676 22.3284C25.939 22.5187 25.8914 22.7328 25.7486 22.8756L22.7745 25.8498C22.6793 25.945 22.5603 25.9926 22.4176 25.9926ZM20.6806 23.0422L22.4176 24.7791L24.1545 23.0422H20.6806Z" fill="white"/>
<path d="M20.6331 29.3952C20.4189 29.3952 20.181 29.3476 19.9193 29.2524C19.6575 29.181 19.5148 28.8955 19.5862 28.61C19.6813 28.3483 19.9669 28.2055 20.2286 28.3007C20.7045 28.4435 20.9424 28.3483 21.0614 28.2293C21.7514 27.7297 21.9179 26.0403 21.9179 25.4931C21.9179 25.2075 22.1321 24.9934 22.4176 24.9934C22.7031 24.9934 22.941 25.2075 22.941 25.4931C22.941 25.7548 22.8934 28.1817 21.6562 29.0621C21.442 29.2286 21.0851 29.3952 20.6331 29.3952Z" fill="white"/>
<path fill-rule="evenodd" clip-rule="evenodd" d="M24.2021 29.3952C23.75 29.3952 23.4169 29.2286 23.179 29.0621C21.9417 28.1817 21.9179 25.7548 21.9179 25.4931C21.9179 25.2075 22.132 24.9934 22.4176 24.9934C22.7031 24.9934 22.941 25.2075 22.941 25.4931C22.941 26.0403 23.0838 27.7534 23.7738 28.2293C23.9166 28.3483 24.1545 28.4435 24.6066 28.3007C24.8683 28.2055 25.1538 28.3483 25.249 28.61C25.3442 28.8955 25.2014 29.181 24.9397 29.2524C24.6542 29.3476 24.4162 29.3952 24.2021 29.3952Z" fill="white"/>
<path d="M28.6991 22.7091C28.5087 22.7091 28.3184 22.5901 28.247 22.3998C28.128 22.1619 28.2232 21.8526 28.4849 21.7336L40.2151 16.2611C40.4768 16.1421 40.7623 16.2373 40.8813 16.499C41.0003 16.7608 40.9051 17.0701 40.6434 17.189L28.9132 22.6615C28.8497 22.6933 28.7784 22.7091 28.6991 22.7091Z" fill="white"/>
<path d="M40.4292 33.3924C40.3499 33.3924 40.2785 33.3766 40.2151 33.3449L28.4849 27.8724C28.2232 27.7534 28.128 27.4441 28.247 27.2061C28.3659 26.9444 28.6515 26.8255 28.9132 26.9444L40.6434 32.4169C40.9051 32.5359 41.0003 32.8452 40.8813 33.1069C40.8099 33.2735 40.6196 33.3924 40.4292 33.3924Z" fill="white"/>
<path d="M43.6413 25.2787H28.2232C27.9615 25.2787 27.7235 25.0408 27.7235 24.7553C27.7235 24.4698 27.9615 24.2556 28.2232 24.2556H43.6413C43.9269 24.2556 44.1648 24.4698 44.1648 24.7553C44.1648 25.0408 43.9269 25.2787 43.6413 25.2787Z" fill="white"/>
<path d="M16.0885 22.3522C16.0251 22.3522 15.9537 22.3363 15.8744 22.3046L4.14418 16.8321C3.90624 16.7131 3.78728 16.4038 3.90624 16.1659C4.02521 15.9041 4.33452 15.7852 4.57246 15.9041L16.3026 21.3766C16.5644 21.4956 16.6833 21.8049 16.5644 22.0666C16.4692 22.257 16.2788 22.3522 16.0885 22.3522Z" fill="white"/>
<path d="M4.35833 33.0592C4.16798 33.0592 4.00142 32.9402 3.90624 32.7499C3.78728 32.512 3.90624 32.2027 4.14418 32.0837L15.8744 26.6112C16.1361 26.4922 16.4454 26.5874 16.5644 26.8491C16.6833 27.1108 16.5644 27.4202 16.3026 27.5391L4.57246 33.0116C4.50901 33.0434 4.43764 33.0592 4.35833 33.0592Z" fill="white"/>
<path d="M16.5644 24.9221H1.14623C0.860711 24.9221 0.646561 24.7079 0.646561 24.4224C0.646561 24.1369 0.860711 23.8989 1.14623 23.8989H16.5644C16.8499 23.8989 17.0641 24.1369 17.0641 24.4224C17.0641 24.7079 16.8499 24.9221 16.5644 24.9221Z" fill="white"/>
</svg>
