<svg width="32" height="32" viewBox="0 0 32 32" fill="none" xmlns="http://www.w3.org/2000/svg">
<g clip-path="url(#clip0_1_2)">
<rect width="32" height="32" rx="5" fill="white"/>
<g clip-path="url(#clip1_1_2)">
<path d="M3.46179 15.9438V6.44822H12.8025H22.1432L23.0244 6.60331C25.9913 7.1255 28.8259 9.4249 29.596 11.934L29.6664 12.1637H28.1993H26.7321L26.4076 11.5492C25.4108 9.66179 23.3359 8.60987 20.8199 8.71641L19.6921 8.76416L18.9055 9.03531C16.6144 9.8251 14.5854 12.3918 14.5854 14.5003V14.7152H16.5573H18.5292V15.7869V16.8585H16.5131H14.497L14.5504 17.2413C15.4118 23.4073 23.5078 25.5679 26.4057 20.4052L26.7351 19.8183H28.1939C28.9963 19.8183 29.6528 19.8423 29.6528 19.8716C29.6528 21.4693 26.3463 24.4194 23.7371 25.1499L22.9281 25.3764L13.1949 25.4079L3.46179 25.4394V15.9438ZM14.3684 22.4886C13.1476 21.1756 12.3496 19.5069 12.0542 17.6495L11.9284 16.8585H8.75691H5.58539V20.0735V23.2884H10.3487H15.112L14.3684 22.4886ZM12.0743 14.1702C12.3179 12.4505 13.2452 10.5771 14.5198 9.2294L15.1231 8.59152H10.3542H5.58539V11.6548V14.7181L8.79484 14.6911L12.0043 14.6642L12.0743 14.1702Z" fill="black"/>
</g>
</g>
<defs>
<clipPath id="clip0_1_2">
<rect width="32" height="32" fill="white"/>
</clipPath>
<clipPath id="clip1_1_2">
<rect width="27" height="19.8" fill="white" transform="translate(3 6)"/>
</clipPath>
</defs>
</svg>
