<svg width="39" height="39" viewBox="0 0 39 39" fill="none" xmlns="http://www.w3.org/2000/svg">
<path fill-rule="evenodd" clip-rule="evenodd" d="M32.6768 0C31.0004 0 29.3926 0.665674 28.2068 1.85064L28.2052 1.8522L25.5906 4.45747C25.4853 4.52843 25.3852 4.61051 25.292 4.7037C25.2005 4.79514 25.1198 4.89323 25.0498 4.99642L10.8826 19.1131C10.506 19.4884 10.2943 19.9982 10.2943 20.5298V26.7064C10.2943 27.811 11.1897 28.7064 12.2943 28.7064H18.4708C19.0025 28.7064 19.5123 28.4947 19.8875 28.1181L34.0042 13.9509C34.1074 13.8808 34.2055 13.8001 34.297 13.7087C34.3901 13.6155 34.4722 13.5154 34.5432 13.41L37.1485 10.7954L37.1497 10.7941C38.3349 9.60829 39.0007 8.00036 39.0007 6.3238C39.0007 4.64663 38.3344 3.03814 37.1485 1.8522C35.9625 0.666255 34.354 0 32.6768 0ZM14.2943 21.3604L26.7294 8.96956L30.0311 12.2712L17.6403 24.7064H14.2943V21.3604ZM29.5629 6.14618L32.8545 9.43777L34.3175 7.9695L34.32 7.96698C34.7558 7.53118 35.0007 6.94011 35.0007 6.3238C35.0007 5.70749 34.7558 5.11642 34.32 4.68063C33.8842 4.24483 33.2932 4 32.6768 4C32.0605 4 31.4695 4.24483 31.0337 4.68063L31.0312 4.68315L29.5629 6.14618ZM6.1177 8.23547C4.49518 8.23547 2.93912 8.88001 1.79183 10.0273C0.644541 11.1746 0 12.7306 0 14.3532V32.8828C0 34.5053 0.644541 36.0614 1.79183 37.2087C2.93912 38.3559 4.49518 39.0005 6.1177 39.0005H24.6473C26.2698 39.0005 27.8259 38.3559 28.9732 37.2087C30.1205 36.0614 30.765 34.5053 30.765 32.8828V30.8239C30.765 29.7194 29.8696 28.8239 28.765 28.8239C27.6605 28.8239 26.765 29.7194 26.765 30.8239V32.8828C26.765 33.4444 26.5419 33.9831 26.1448 34.3802C25.7476 34.7774 25.209 35.0005 24.6473 35.0005H6.1177C5.55605 35.0005 5.0174 34.7774 4.62026 34.3802C4.22311 33.9831 4 33.4444 4 32.8828V14.3532C4 13.7915 4.22311 13.2529 4.62026 12.8557C5.0174 12.4586 5.55605 12.2355 6.1177 12.2355H8.17654C9.28111 12.2355 10.1765 11.34 10.1765 10.2355C10.1765 9.1309 9.28111 8.23547 8.17654 8.23547H6.1177Z" fill="white"/>
</svg>
